<?xml version="1.0" encoding="utf-8"?>
<!-- Generator: Adobe Illustrator 24.1.2, SVG Export Plug-In . SVG Version: 6.00 Build 0)  -->
<svg version="1.1" id="Capa_1" xmlns="http://www.w3.org/2000/svg" xmlns:xlink="http://www.w3.org/1999/xlink" x="0px" y="0px"
	 viewBox="0 0 512 512" style="enable-background:new 0 0 512 512;" xml:space="preserve">
<style type="text/css">
	.st0{fill:#323241;}
</style>
<g>
	<g>
		<path class="st0" d="M472.4,123L263.5,2c-4.6-2.7-10.4-2.7-15,0L39.5,123c-4.6,2.7-7.5,7.6-7.5,13c0,0,0,0.1,0,0.1V376
			c0,5.4,2.9,10.4,7.6,13.1L248.5,510c2.2,1.3,4.9,2,7.5,2c2.7,0,5.4-0.8,7.5-2l208.7-120.9c0,0,0.1,0,0.1-0.1
			c4.8-3.5,7.4-6.4,7.5-12.8c0-0.1,0-0.1,0-0.2V136.1c0,0,0-0.1,0-0.1C479.9,130.7,477,125.7,472.4,123z M241,471L77.2,376.1
			l126.3-72.4c7.2-4.1,9.7-13.3,5.5-20.5c-4.1-7.2-13.3-9.7-20.5-5.5L62.1,350.1V161.9L241,264.7V471z M256,238.7L77.2,135.9
			L256,32.3l178.8,103.6L256,238.7z M450,350.1l-126.5-72.5c-7.2-4.1-16.3-1.6-20.5,5.5c-4.1,7.2-1.6,16.3,5.5,20.5l126.3,72.4
			L271,471V264.7l179-102.8L450,350.1L450,350.1z"/>
	</g>
</g>
</svg>
