<?xml version="1.0" encoding="utf-8"?>
<!-- Generator: Adobe Illustrator 24.1.2, SVG Export Plug-In . SVG Version: 6.00 Build 0)  -->
<svg version="1.1" id="svg" xmlns="http://www.w3.org/2000/svg" xmlns:xlink="http://www.w3.org/1999/xlink" x="0px" y="0px"
	 viewBox="0 0 512 512" style="enable-background:new 0 0 512 512;" xml:space="preserve">
<style type="text/css">
	.st0{fill:#D7DEEC;}
	.st1{enable-background:new    ;}
</style>
<g id="Capa_1">
	<g>
		<g>
			<path class="st0" d="M159.4,259l-54.6-31.6c-1.2-0.7-2.7-0.7-3.9,0L46.3,259c-1.2,0.7-2,2-2,3.4v0v62.7c0,1.4,0.8,2.7,2,3.4
				l54.6,31.6c0.6,0.3,1.3,0.5,2,0.5c0.7,0,1.4-0.2,2-0.5l54.5-31.6c0,0,0,0,0,0c1.3-0.9,1.9-1.7,2-3.4c0,0,0,0,0,0v-62.7v0
				C161.4,261.1,160.6,259.8,159.4,259z M98.9,350l-42.8-24.8l33-18.9c1.9-1.1,2.5-3.5,1.4-5.4c-1.1-1.9-3.5-2.5-5.4-1.4l-33,18.9
				v-49.2l46.8,26.9L98.9,350L98.9,350z M102.8,289.3l-46.7-26.9l46.7-27.1l46.7,27.1L102.8,289.3z M153.6,318.4l-33.1-19
				c-1.9-1.1-4.3-0.4-5.4,1.4c-1.1,1.9-0.4,4.3,1.4,5.4l33,18.9L106.8,350v-53.9l46.8-26.9V318.4L153.6,318.4z"/>
		</g>
	</g>
</g>
<g class="st1">
	<path class="st0" d="M64.3,211L38,135.1h-0.5c0.7,11.3,1.1,21.8,1.1,31.7V211H25v-90.9H46l25.2,72.3h0.4l26-72.3h21V211h-14.3V166
		c0-4.5,0.1-10.4,0.3-17.7c0.2-7.3,0.4-11.6,0.6-13.2h-0.5L77.4,211H64.3z"/>
	<path class="st0" d="M201.9,176.5c0,11.2-2.9,20-8.6,26.3c-5.8,6.3-13.8,9.4-24.1,9.4c-6.4,0-12.1-1.5-17-4.4
		c-4.9-2.9-8.7-7.1-11.4-12.5c-2.7-5.4-4-11.7-4-18.9c0-11.1,2.9-19.8,8.6-26.1c5.7-6.3,13.8-9.4,24.2-9.4c9.9,0,17.8,3.2,23.6,9.6
		C199,157,201.9,165.6,201.9,176.5z M151.9,176.5c0,15.9,5.9,23.8,17.6,23.8c11.6,0,17.4-7.9,17.4-23.8c0-15.7-5.8-23.6-17.5-23.6
		c-6.1,0-10.6,2-13.3,6.1C153.3,163.1,151.9,168.9,151.9,176.5z"/>
	<path class="st0" d="M241.9,212.2c-8.6,0-15.3-3.1-20.1-9.3c-4.8-6.2-7.2-14.9-7.2-26.2c0-11.3,2.4-20,7.3-26.3
		c4.9-6.3,11.6-9.4,20.2-9.4c9,0,15.9,3.3,20.6,10h0.7c-0.7-4.9-1.1-8.8-1.1-11.7v-25h14.7V211h-11.4l-2.5-9h-0.7
		C257.8,208.8,250.9,212.2,241.9,212.2z M245.8,200.4c6,0,10.4-1.7,13.1-5.1c2.7-3.4,4.1-8.9,4.2-16.4v-2.1c0-8.7-1.4-14.8-4.2-18.5
		c-2.8-3.6-7.2-5.5-13.2-5.5c-5.1,0-9.1,2.1-11.9,6.2c-2.8,4.2-4.2,10.1-4.2,17.8c0,7.6,1.3,13.4,4,17.4
		C236.4,198.4,240.4,200.4,245.8,200.4z"/>
	<path class="st0" d="M328.1,212.2c-10.7,0-19.1-3.1-25.1-9.4c-6-6.2-9-14.8-9-25.8c0-11.2,2.8-20.1,8.4-26.5
		c5.6-6.4,13.3-9.6,23.1-9.6c9.1,0,16.2,2.8,21.5,8.3c5.3,5.5,7.9,13.1,7.9,22.8v7.9H309c0.2,6.7,2,11.8,5.4,15.4
		c3.4,3.6,8.2,5.4,14.4,5.4c4.1,0,7.8-0.4,11.3-1.2c3.5-0.8,7.3-2,11.3-3.8v11.9c-3.6,1.7-7.2,2.9-10.8,3.6
		C336.9,211.9,332.8,212.2,328.1,212.2z M325.4,152c-4.6,0-8.4,1.5-11.2,4.4c-2.8,2.9-4.5,7.2-5,12.9h31.2c-0.1-5.7-1.5-10-4.1-12.9
		C333.7,153.5,330,152,325.4,152z"/>
	<path class="st0" d="M406.3,141c2.9,0,5.4,0.2,7.3,0.6l-1.4,13.6c-2.1-0.5-4.2-0.7-6.5-0.7c-5.8,0-10.6,1.9-14.2,5.7
		c-3.6,3.8-5.4,8.8-5.4,14.9V211h-14.6v-68.7h11.4l1.9,12.1h0.7c2.3-4.1,5.3-7.4,8.9-9.8C398.1,142.2,402,141,406.3,141z"/>
	<path class="st0" d="M486.8,211h-14.7v-42.3c0-5.3-1.1-9.3-3.2-11.9c-2.1-2.6-5.5-3.9-10.2-3.9c-6.2,0-10.7,1.8-13.6,5.5
		c-2.9,3.6-4.3,9.8-4.3,18.3V211h-14.6v-68.7h11.4l2.1,9h0.7c2.1-3.3,5-5.8,8.8-7.6c3.8-1.8,8-2.7,12.7-2.7
		c16.5,0,24.7,8.4,24.7,25.2V211z"/>
</g>
<g class="st1">
	<path class="st0" d="M232.3,333l-26.4-75.9h-0.5c0.7,11.3,1.1,21.8,1.1,31.7V333H193v-90.9H214l25.2,72.3h0.4l26-72.3h21V333h-14.3
		V288c0-4.5,0.1-10.4,0.3-17.7c0.2-7.3,0.4-11.6,0.6-13.2h-0.5L245.4,333H232.3z"/>
	<path class="st0" d="M308.1,246c0-2.6,0.7-4.6,2.1-6c1.4-1.4,3.5-2.1,6.1-2.1c2.6,0,4.6,0.7,6,2.1c1.4,1.4,2.1,3.4,2.1,6
		c0,2.5-0.7,4.4-2.1,5.9s-3.4,2.1-6,2.1c-2.7,0-4.7-0.7-6.1-2.1S308.1,248.5,308.1,246z M323.5,333h-14.6v-68.7h14.6V333z"/>
	<path class="st0" d="M404.9,333h-14.7v-42.3c0-5.3-1.1-9.3-3.2-11.9c-2.1-2.6-5.5-3.9-10.2-3.9c-6.2,0-10.7,1.8-13.6,5.5
		c-2.9,3.6-4.3,9.8-4.3,18.3V333h-14.6v-68.7h11.4l2.1,9h0.7c2.1-3.3,5-5.8,8.8-7.6c3.8-1.8,8-2.7,12.7-2.7
		c16.5,0,24.7,8.4,24.7,25.2V333z"/>
	<path class="st0" d="M455.3,334.2c-10.7,0-19.1-3.1-25.1-9.4c-6-6.2-9-14.8-9-25.8c0-11.2,2.8-20.1,8.4-26.5
		c5.6-6.4,13.3-9.6,23.1-9.6c9.1,0,16.2,2.8,21.5,8.3c5.3,5.5,7.9,13.1,7.9,22.8v7.9h-45.8c0.2,6.7,2,11.8,5.4,15.4
		c3.4,3.6,8.2,5.4,14.4,5.4c4.1,0,7.8-0.4,11.3-1.2c3.5-0.8,7.3-2,11.3-3.8v11.9c-3.6,1.7-7.2,2.9-10.8,3.6
		C464.1,333.9,459.9,334.2,455.3,334.2z M452.6,274c-4.6,0-8.4,1.5-11.2,4.4c-2.8,2.9-4.5,7.2-5,12.9h31.2c-0.1-5.7-1.4-10-4.1-12.9
		C460.9,275.5,457.2,274,452.6,274z"/>
</g>
</svg>
